{"title":"The Wolfman NEW AUDIO TS XViD V2 - IMAGiNE","uid":5415243,"size":1490208797,"categoryP":"video","categoryS":"movies","magnet":"?xt=urn:btih:4ff2e9c41115b666734d5b2fbe0ca60d156affe6&amp;dn=The+Wolfman+NEW+AUDIO+TS+XViD+V2+-+IMAGiNE&amp;tr=udp%3A%2F%2Ftracker.openbittorrent.com%3A80&amp;tr=udp%3A%2F%2Fopen.demonii.com%3A1337&amp;tr=udp%3A%2F%2Ftracker.coppersurfer.tk%3A6969&amp;tr=udp%3A%2F%2Fexodus.desync.com%3A6969","seeders":1,"leechers":0,"uploader":"TvTeam","files":104,"time":1267893351,"description":" &lt;a href=&quot;http://www.torrentday.com&quot; rel=&quot;nofollow&quot; target=&quot;_NEW&quot;&gt;http://www.torrentday.com&lt;/a&gt; - Your Key To The Scene.\n\n &lt;a href=&quot;\nhttp://www.torrentday.com&quot; rel=&quot;nofollow&quot; target=&quot;_NEW&quot;&gt;\nhttp://www.torrentday.com&lt;/a&gt; :  Clean RAR Scene Releases!\n\n\nEnjoy =)\n\n...................................NFO:....................................\n\n.      *********** ****    ****      ***      ******** *********** ****    *** **********\n           *+*     +*+*+* *+*+*+   *+* *+*   *+*    *+*    *+*     *+*+*   *+* *+*        \n           +*+     +*+ +*+*+ +*+  +*+   +*+  +*+           +*+     *+*+*+  +*+ +*+        \n           +$+     +$+  +*+  +$+ +$++*++$++* *$*           +$+     +$+ +*+ +$+ +$++*++$  \n           +$+     +$+       +$+ +$+     +$+ +$+   +$+$    +$+     +$+  +$+$+$ +$+        \n           $+$     $+$       $+$ $+$     $+$ $+$    $+$    $+$     $+$   $+$+$ $+$        \n       $$$$$$$$$$$ $$$       $$$ $$$     $$$  $$$$$$$$ $$$$$$$$$$$ $$$    $$$$ $$$$$$$$$$     \n                                                \n\n\n\n                           Another Fine Release Brought to you from - IMAGiNE                   \n                                             &lt;a href=&quot; http://imaginegroup.me/&quot; rel=&quot;nofollow&quot; target=&quot;_NEW&quot;&gt; http://imaginegroup.me/&lt;/a&gt;  \n    \n********************************************************************************************************************                                \n                    The Wolfman NEW AUDIO TS XViD V2 - IMAGiNE\n********************************************************************************************************************\n\nRipper ...........: IMAGiNE                                        IMDB Rating.......:6.8/10                             \nVideo Codec.......: XVID                                         Release Date......:06/03/10\nAudio Codec.......:MP3                                           Theatre Date......:12/02/10\nAudio Bitrate.....:128                                              Runtime.......:1h 36mn\nSubtitles.........:ENG When needed                    Language..........:ENGLISH\nResolution...... 720 x 368                                      IMDb URL..........:http://www.imdb.com/title/tt0780653/\n\n\n[color=yellow]DETAILS:[/color]\n\nVideo\nID                               : 0\nFormat                           : MPEG-4 Visual\nFormat profile                   : Advanced Simple@L5\nFormat settings, BVOP            : Yes\nFormat settings, QPel            : No\nFormat settings, GMC             : No warppoints\nFormat settings, Matrix          : Default (MPEG)\nMuxing mode                      : Packed bitstream\nCodec ID                         : XVID\nCodec ID/Hint                    : XviD\nDuration                         : 1h 36mn\nBit rate                         : 1 906 Kbps\nWidth                            : 720 pixels\nHeight                           : 368 pixels\nDisplay aspect ratio             : 1.957\nFrame rate                       : 23.976 fps\nResolution                       : 24 bits\nColorimetry                      : 4:2:0\nScan type                        : Progressive\nBits/(Pixel*Frame)               : 0.300\nStream size                      : 1.28 GiB (93%)\nWriting library                  : XviD 1.2.1 (UTC 2008-12-04)\n\nAudio\nID                               : 1\nFormat                           : MPEG Audio\nFormat version                   : Version 1\nFormat profile                   : Layer 3\nCodec ID                         : 55\nCodec ID/Hint                    : MP3\nDuration                         : 1h 36mn\nBit rate mode                    : Constant\nBit rate                         : 128 Kbps\nChannel(s)                       : 2 channels\nSampling rate                    : 44.1 KHz\nResolution                       : 16 bits\nStream size                      : 88.1 MiB (6%)\nAlignment                        : Split accross interleaves\nInterleave, duration             : 42 ms (1.00 video frame)\nInterleave, preload duration     : 500 ms\n\n\n[color=yellow]NOTES:[/color]\n\nIMAGiNE bringing you another release.....\nRight to clear this up simple.....this is the same video we used before but this time \nround muxed with our our COMPLETE direct audio.\nWe thought we'd release this becuase the audio is now complete,no cam audio in it anywhere +\nit sounds much better than the previous release.\n\nAnyway enjoy :)\n\n[color=yellow]SCREENS:[/color]\n\n[IMG]http://imagine.takagari.com/THE%20WOLFMAN/vlcsnap-405023.png[/IMG]\n[IMG]http://imagine.takagari.com/THE%20WOLFMAN/vlcsnap-405489.png[/IMG]\n[IMG]http://imagine.takagari.com/THE%20WOLFMAN/vlcsnap-408047.png[/IMG]\n[IMG]http://imagine.takagari.com/THE%20WOLFMAN/vlcsnap-408372.png[/IMG]\n[IMG]http://imagine.takagari.com/THE%20WOLFMAN/vlcsnap-408857.png[/IMG]\n[IMG]http://imagine.takagari.com/THE%20WOLFMAN/vlcsnap-409246.png[/IMG]\n\n\n[color=yellow]GREETS:[/color]\n\nFLAWL3SS,ViSiON,DEViSE,FUSiON,STG,SecretMyth,BirdFlu,ELEKTRI4KA\nAnd to all the other p2p grps past and present \n\nSpecial thanks to Python-Lair for the server :)\nAnd special thanks to supreme-speeds.com for the ripbox :)\n\n[COLOR=RED]Looking for these,syncers,cammer,silver supplier.....Have anything to offer????......\nContact us &lt;a class=&quot;__cf_email__&quot; href=&quot;/cdn-cgi/l/email-protection&quot; data-cfemail=&quot;fe97939f9997909b998c918b8ebe968b8d96939f9792d09d9193&quot;&gt;[email&amp;#160;protected]&lt;/a&gt;&lt;script cf-hash='f9e31' type=&quot;text/javascript&quot;&gt;\n/* &lt;![CDATA[ */!function(){try{var t=&quot;currentScript&quot;in document?document.currentScript:function(){for(var t=document.getElementsByTagName(&quot;script&quot;),e=t.length;e--;)if(t[e].getAttribute(&quot;cf-hash&quot;))return t[e]}();if(t&amp;&amp;t.previousSibling){var e,r,n,i,c=t.previousSibling,a=c.getAttribute(&quot;data-cfemail&quot;);if(a){for(e=&quot;&quot;,r=parseInt(a.substr(0,2),16),n=2;a.length-n;n+=2)i=parseInt(a.substr(n,2),16)^r,e+=String.fromCharCode(i);e=document.createTextNode(e),c.parentNode.replaceChild(e,c)}}}catch(u){}}();/* ]]&gt; */&lt;/script&gt;[/COLOR]","torrent":{"xt":"urn:btih:4ff2e9c41115b666734d5b2fbe0ca60d156affe6","amp;dn":"The+Wolfman+NEW+AUDIO+TS+XViD+V2+-+IMAGiNE","amp;tr":["udp%3A%2F%2Ftracker.openbittorrent.com%3A80","udp%3A%2F%2Fopen.demonii.com%3A1337","udp%3A%2F%2Ftracker.coppersurfer.tk%3A6969","udp%3A%2F%2Fexodus.desync.com%3A6969"],"infoHash":"4ff2e9c41115b666734d5b2fbe0ca60d156affe6","infoHashBuffer":{"type":"Buffer","data":[79,242,233,196,17,21,182,102,115,77,91,47,190,12,166,13,21,106,255,230]},"announce":[],"urlList":[]}}